# Blender 3.3.1
# www.blender.org
o Plane
v -1.000000 1.000000 0.000000
v -1.000000 -1.000000 0.000000
v 1.000000 1.000000 0.000000
v 1.000000 -1.000000 0.000000
v 0.750000 1.000000 0.000000
v 0.500000 1.000000 0.000000
v 0.250000 1.000000 0.000000
v 0.000000 1.000000 0.000000
v -0.250000 1.000000 0.000000
v -0.500000 1.000000 0.000000
v -0.750000 1.000000 0.000000
v -1.000000 0.750000 0.000000
v -1.000000 0.500000 0.000000
v -1.000000 0.250000 0.000000
v -1.000000 0.000000 0.000000
v -1.000000 -0.250000 0.000000
v -1.000000 -0.500000 0.000000
v -1.000000 -0.750000 0.000000
v -0.750000 -1.000000 0.000000
v -0.500000 -1.000000 0.000000
v -0.250000 -1.000000 0.000000
v 0.000000 -1.000000 0.000000
v 0.250000 -1.000000 0.000000
v 0.500000 -1.000000 0.000000
v 0.750000 -1.000000 0.000000
v 1.000000 -0.750000 0.000000
v 1.000000 -0.500000 0.000000
v 1.000000 -0.250000 0.000000
v 1.000000 0.000000 0.000000
v 1.000000 0.250000 0.000000
v 1.000000 0.500000 0.000000
v 1.000000 0.750000 0.000000
v -0.750000 0.750000 0.000000
v -0.750000 0.500000 0.000000
v -0.750000 0.250000 0.000000
v -0.750000 0.000000 0.000000
v -0.750000 -0.250000 0.000000
v -0.750000 -0.500000 0.000000
v -0.750000 -0.750000 0.000000
v -0.500000 0.750000 0.000000
v -0.500000 0.500000 0.000000
v -0.500000 0.250000 0.000000
v -0.500000 -0.000000 0.000000
v -0.500000 -0.250000 0.000000
v -0.500000 -0.500000 0.000000
v -0.500000 -0.750000 0.000000
v -0.250000 0.750000 0.000000
v -0.250000 0.500000 0.000000
v -0.250000 0.250000 0.000000
v -0.250000 0.000000 0.000000
v -0.250000 -0.250000 0.000000
v -0.250000 -0.500000 0.000000
v -0.250000 -0.750000 0.000000
v -0.000000 0.750000 0.000000
v -0.000000 0.500000 0.000000
v 0.000000 0.250000 0.000000
v -0.000000 -0.000000 0.000000
v -0.000000 -0.250000 0.000000
v -0.000000 -0.500000 0.000000
v -0.000000 -0.750000 0.000000
v 0.250000 0.750000 0.000000
v 0.250000 0.500000 0.000000
v 0.250000 0.250000 0.000000
v 0.250000 -0.000000 0.000000
v 0.250000 -0.250000 0.000000
v 0.250000 -0.500000 0.000000
v 0.250000 -0.750000 0.000000
v 0.500000 0.750000 0.000000
v 0.500000 0.500000 0.000000
v 0.500000 0.250000 0.000000
v 0.500000 0.000000 0.000000
v 0.500000 -0.250000 0.000000
v 0.500000 -0.500000 0.000000
v 0.500000 -0.750000 0.000000
v 0.750000 0.750000 0.000000
v 0.750000 0.500000 0.000000
v 0.750000 0.250000 0.000000
v 0.750000 0.000000 0.000000
v 0.750000 -0.250000 0.000000
v 0.750000 -0.500000 0.000000
v 0.750000 -0.750000 0.000000
vn -0.0000 -0.0000 1.0000
s 0
f 34//1 40//1 33//1
f 34//1 42//1 41//1
f 36//1 42//1 35//1
f 37//1 43//1 36//1
f 37//1 45//1 44//1
f 38//1 46//1 45//1
f 40//1 48//1 47//1
f 42//1 48//1 41//1
f 43//1 49//1 42//1
f 43//1 51//1 50//1
f 45//1 51//1 44//1
f 46//1 52//1 45//1
f 47//1 55//1 54//1
f 49//1 55//1 48//1
f 50//1 56//1 49//1
f 50//1 58//1 57//1
f 51//1 59//1 58//1
f 53//1 59//1 52//1
f 55//1 61//1 54//1
f 55//1 63//1 62//1
f 56//1 64//1 63//1
f 58//1 64//1 57//1
f 59//1 65//1 58//1
f 59//1 67//1 66//1
f 62//1 68//1 61//1
f 62//1 70//1 69//1
f 63//1 71//1 70//1
f 65//1 71//1 64//1
f 66//1 72//1 65//1
f 66//1 74//1 73//1
f 68//1 76//1 75//1
f 70//1 76//1 69//1
f 70//1 78//1 77//1
f 72//1 78//1 71//1
f 73//1 79//1 72//1
f 73//1 81//1 80//1
f 12//1 11//1 1//1
f 13//1 33//1 12//1
f 13//1 35//1 34//1
f 15//1 35//1 14//1
f 16//1 36//1 15//1
f 17//1 37//1 16//1
f 17//1 39//1 38//1
f 18//1 19//1 39//1
f 19//1 46//1 39//1
f 20//1 53//1 46//1
f 21//1 60//1 53//1
f 22//1 67//1 60//1
f 67//1 24//1 74//1
f 24//1 81//1 74//1
f 25//1 26//1 81//1
f 80//1 26//1 27//1
f 79//1 27//1 28//1
f 78//1 28//1 29//1
f 77//1 29//1 30//1
f 77//1 31//1 76//1
f 76//1 32//1 75//1
f 5//1 32//1 3//1
f 6//1 75//1 5//1
f 61//1 6//1 7//1
f 54//1 7//1 8//1
f 9//1 54//1 8//1
f 40//1 9//1 10//1
f 33//1 10//1 11//1
f 34//1 41//1 40//1
f 34//1 35//1 42//1
f 36//1 43//1 42//1
f 37//1 44//1 43//1
f 37//1 38//1 45//1
f 38//1 39//1 46//1
f 40//1 41//1 48//1
f 42//1 49//1 48//1
f 43//1 50//1 49//1
f 43//1 44//1 51//1
f 45//1 52//1 51//1
f 46//1 53//1 52//1
f 47//1 48//1 55//1
f 49//1 56//1 55//1
f 50//1 57//1 56//1
f 50//1 51//1 58//1
f 51//1 52//1 59//1
f 53//1 60//1 59//1
f 55//1 62//1 61//1
f 55//1 56//1 63//1
f 56//1 57//1 64//1
f 58//1 65//1 64//1
f 59//1 66//1 65//1
f 59//1 60//1 67//1
f 62//1 69//1 68//1
f 62//1 63//1 70//1
f 63//1 64//1 71//1
f 65//1 72//1 71//1
f 66//1 73//1 72//1
f 66//1 67//1 74//1
f 68//1 69//1 76//1
f 70//1 77//1 76//1
f 70//1 71//1 78//1
f 72//1 79//1 78//1
f 73//1 80//1 79//1
f 73//1 74//1 81//1
f 12//1 33//1 11//1
f 13//1 34//1 33//1
f 13//1 14//1 35//1
f 15//1 36//1 35//1
f 16//1 37//1 36//1
f 17//1 38//1 37//1
f 17//1 18//1 39//1
f 18//1 2//1 19//1
f 19//1 20//1 46//1
f 20//1 21//1 53//1
f 21//1 22//1 60//1
f 22//1 23//1 67//1
f 67//1 23//1 24//1
f 24//1 25//1 81//1
f 25//1 4//1 26//1
f 80//1 81//1 26//1
f 79//1 80//1 27//1
f 78//1 79//1 28//1
f 77//1 78//1 29//1
f 77//1 30//1 31//1
f 76//1 31//1 32//1
f 5//1 75//1 32//1
f 6//1 68//1 75//1
f 61//1 68//1 6//1
f 54//1 61//1 7//1
f 9//1 47//1 54//1
f 40//1 47//1 9//1
f 33//1 40//1 10//1
